<?xml version="1.0" encoding="iso-8859-1"?>
<!-- Generator: Adobe Illustrator 21.1.0, SVG Export Plug-In . SVG Version: 6.00 Build 0)  -->
<svg version="1.1" id="Layer_1" xmlns="http://www.w3.org/2000/svg" xmlns:xlink="http://www.w3.org/1999/xlink" x="0px" y="0px"
	 viewBox="0 0 128 128" style="enable-background:new 0 0 128 128;" xml:space="preserve">
<g id="_x31_">
	<path style="fill:#C6E1F8;" d="M24.962,71.039h4.481c4.418,0,8,3.582,8,8v34.084c0,4.971-4.029,9-9,9h-3.481L24.962,71.039z
		 M103.038,71.039h-4.481c-4.418,0-8,3.582-8,8v35.084c0,4.418,3.582,8,8,8h4.481V71.039z"/>
	<path style="fill:#007DDF;" d="M125.678,79.144V65.716c0-12.239-3.604-23.645-9.784-33.241l2.91-1.878
		c-12.1-18.749-32.551-29.943-54.705-29.943S21.495,11.847,9.395,30.594l2.91,1.878c-6.182,9.597-9.786,21.004-9.786,33.244v13.195
		C0.953,80.738,0,83.106,0,85.696v21.769c0,5.762,4.687,10.449,10.449,10.449h0.581v2.467c0,3.841,3.125,6.966,6.966,6.966h6.966
		v-3.483h3.773c4.801,0,8.707-3.906,8.707-8.707V78.004c0-4.801-3.906-8.707-8.707-8.707h-3.773v-3.483h-6.966
		c-3.841,0-6.966,3.125-6.966,6.966v2.468h-0.581c-1.592,0-3.096,0.368-4.447,1.008v-10.54c0-11.544,3.398-22.304,9.227-31.356
		l2.944,1.901C28.34,20.508,45.509,11.103,64.098,11.103c18.59,0,35.759,9.406,45.927,25.161l2.944-1.901
		c5.828,9.052,9.226,19.81,9.226,31.354V76.35c-1.401-0.699-2.975-1.103-4.645-1.103h-0.58V72.78c0-3.841-3.125-6.966-6.966-6.966
		h-6.966v3.483h-3.774c-4.801,0-8.707,3.906-8.707,8.707v37.152c0,4.801,3.906,8.707,8.707,8.707h3.774v3.483h6.966
		c3.841,0,6.966-3.125,6.966-6.966v-2.467h0.58c5.762,0,10.449-4.687,10.449-10.449V85.696
		C128,83.216,127.127,80.938,125.678,79.144z M33.959,78.004v37.152c0,2.881-2.344,5.224-5.224,5.224h-3.773v-47.6h3.773
		C31.616,72.78,33.959,75.123,33.959,78.004z M14.513,72.78c0-1.921,1.562-3.483,3.483-3.483h3.483v1.742v51.084v1.741h-3.483
		c-1.921,0-3.483-1.562-3.483-3.483C14.513,120.381,14.513,72.78,14.513,72.78z M11.03,78.73v35.701h-0.581
		c-3.841,0-6.966-3.125-6.966-6.966V85.696c0-3.841,3.125-6.966,6.966-6.966C10.449,78.73,11.03,78.73,11.03,78.73z M94.041,115.156
		V78.004c0-2.881,2.344-5.224,5.224-5.224h3.774v47.601h-3.774C96.384,120.381,94.041,118.037,94.041,115.156z M113.488,120.381
		c0,1.921-1.562,3.483-3.483,3.483h-3.483v-1.741V71.038v-1.742h3.483c1.921,0,3.483,1.562,3.483,3.483V120.381z M124.517,107.465
		c0,3.841-3.125,6.966-6.966,6.966h-0.58V78.73h0.58c3.841,0,6.966,3.125,6.966,6.966V107.465z"/>
</g>
<g id="Layer_1_1_">
</g>
</svg>
